<?xml version="1.0" encoding="UTF-8"?>
<svg id="Warstwa_1" data-name="Warstwa 1" xmlns="http://www.w3.org/2000/svg" xmlns:xlink="http://www.w3.org/1999/xlink" viewBox="0 0 277.35 473.19">
  <defs>
    <style>
      .cls-1 {
        fill: #fff;
      }

      .cls-1, .cls-2 {
        stroke-width: 0px;
      }

      .cls-2 {
        fill: #494fae;
        filter: url(#outer-glow-1);
      }
    </style>
    <filter id="outer-glow-1" filterUnits="userSpaceOnUse">
      <feOffset dx="0" dy="0"/>
      <feGaussianBlur result="blur" stdDeviation="22"/>
      <feFlood flood-color="#fff" flood-opacity=".75"/>
      <feComposite in2="blur" operator="in"/>
      <feComposite in="SourceGraphic"/>
    </filter>
  </defs>
  <path class="cls-1" d="M161.3,323.23c5.26-1.2,10.61-.46,15.91-.64-.01,15.8-.02,31.61-.03,47.41-5.31.06-10.61.33-15.85,1.29,0-16.02-.02-32.04-.03-48.05Z"/>
  <path class="cls-1" d="M177.27,260.34c-5.36.18-10.65-1.07-16.02-.64.01-14.74.03-29.49.04-44.23,2.37.51,4.76.63,7.18.66,2.95.03,5.79-1.12,8.76-.66.01,14.96.02,29.91.04,44.87Z"/>
  <path class="cls-1" d="M188.21,450.14c-1.21-6.3-5.06-10.44-10.7-13.13,0,0,0,0,0,0-2.77-1.78-5.88-1.85-9.01-1.71-8.14.18-13.92,4.32-16.74,11.61-2.59,6.71-2.26,13.58,3.04,19.35.65,1.23,1.46,2.28,2.9,2.63,3,2.93,6.67,4.19,10.81,4.21,1.49.11,2.95.16,4.44-.16,10.98-2.35,16.42-10.44,15.27-22.81Z"/>
  <path class="cls-2" d="M75.4,92.5c1.52,2.29,4.01,3.7,5.47,6.05-.29,1.03-.78.57-1.43.31-3.03-1.22-5.7-3.29-8.99-3.88-1.46-1.98-3.56-3.47-4.42-5.89,2.99,1.11,5.99,2.22,8.98,3.33.13.03.26.06.39.09Z"/>
  <path class="cls-1" d="M277.22,82.17c-.17-1.21-.22-2.44-.51-3.61-2.46-9.89-10.38-16.34-21.86-17.89-3.27-.99-6.7-1.04-10.05-1.6-10.18-1.7-20.42-3.04-30.66-4.41-1.86-.25-2.83-1.06-3.62-2.71-6.23-13-12.5-25.98-19.29-38.69-1.4-2.61-2.97-5.1-5.35-6.96h0c-1.5-2.05-3.73-3.03-5.94-4.04-4.32-2.52-9.16-1.87-13.83-2.26-2.83.11-5.4,1.08-7.88,2.36-3.03,1.33-5.77,3.09-7.7,5.83-6.77,9.61-10.89,20.6-16.04,31.06-2.42,4.1-4.4,8.41-6.39,12.72-.4.87-.58,1.9-1.82,2.08-10.17,1.47-20.36,2.89-30.51,4.48-4.99.78-10.05,1.15-14.95,2.44-5.48,1.07-10.23,3.42-13.74,7.92-2.29,2.58-4.21,5.38-4.95,8.82,2.8,1.75,5.62,3.49,8.4,5.27-2.78-1.78-5.6-3.52-8.4-5.27-.71,1.22-.92,2.56-.9,3.95,0,1.32-.02,2.63-.03,3.95-.16,7.73,2.9,13.92,8.92,18.71,9.27,9.51,18.81,18.75,28.49,27.85,1.93,1.82,2.3,3.41,1.84,5.93-2.3,12.88-4.37,25.8-6.52,38.7-1.14,3.68-1.34,7.42-.51,11.16,3.62,16.24,20.34,24.46,35.31,17.19,8.54-4.15,16.89-8.71,25.32-13.09,1.44-.75,2.95-1.37,4.16-2.51,3.24-.96,6.05-2.83,8.89-4.52,1.62-.96,2.67-.86,4.2-.01,12.71,7.09,25.64,13.77,38.65,20.29,3.36,1.68,6.95,2.93,10.86,2.43,12.07.54,22.32-8.06,23.96-20.11.53-2.35.42-4.73.32-7.1-.33-7.64-2.47-15.02-3.41-22.59-.91-7.31-2.45-14.54-3.72-21.8-.22-1.27-.04-2.06,1.11-3.09,4.08-3.66,7.88-7.63,11.78-11.48,1.24-1.14,2.5-2.25,3.7-3.43,4.58-4.51,9-9.23,13.78-13.48,6.92-6.14,9.71-13.5,8.92-22.49ZM261.78,94.04c-1.53,1.93-3.2,3.19-4.42,3.96-.48,1.68-1.94,2.57-3.13,3.58-1.9,1.62-3.59,3.44-5.38,5.18-2.3,2.31-4.6,4.62-6.9,6.93.03.61.29,1.1.7,1.45-.41-.35-.67-.84-.7-1.45-4.68,4.46-9.43,8.86-14.02,13.41-2.29,2.27-2.6,5.12-2.33,8.35.69,8.07,3.07,15.85,3.77,23.89.02.23.2.44.31.67.38,6.76,2.46,13.24,3.29,19.93.71,5.78-.93,12.58-6.75,14.6-1.81,1.13-3.89,1.15-5.91,1.4-3.01-.28-5.59-1.72-8.2-3.05-5.33-2.73-10.64-5.51-15.95-8.27-7.1-3.85-14.19-7.71-21.31-11.54-3.3-1.78-6.85-1.93-10.16-.4-4.36,2.02-8.51,4.49-12.74,6.79-.27.15-.44.47-.66.7,0,0,0,0,0,0-2.99.69-5.33,2.72-8.09,3.91-1.57.68-3.11,1.43-4.66,2.15-1.75,1.67-4.07,2.35-6.15,3.44-3.46,1.82-6.97,3.57-10.51,5.26-2.87,1.37-5.76,1.21-8.57-.29-5.3-.71-9.79-9.28-7.96-14.34.78-2.17.75-4.63,1.09-6.96h0c1.09-3.72,1.01-7.7,2.46-11.35,1.02-7.71,2.18-15.4,3.65-23.03.41-2.15.92-4.29.74-6.51-1.01-4.21-3.94-7.05-7.09-9.68-1.7-1.42-3.29-2.93-4.72-4.61-2-1.95-3.99-3.91-5.99-5.86-1.07-.36-1.77-1.13-2.33-2.07-2.32-1.96-4.5-4.05-6.46-6.37-1.94-1.77-3.88-3.55-5.82-5.32-.34-.45-.91-1.17-1.65-2.02-1.85-2.11-2.76-2.64-3.82-4.03-.61-.79-1.41-2.06-1.99-3.95-.64-.2-1.26-.44-1.85-.72.59.28,1.21.52,1.85.72-.17-1.48-.34-2.95-.51-4.43h0c.22-1.57.63-3.08,1.46-4.44.15-1.17,1.13-1.9,1.52-2.93h0c2.42-2.09,5-3.85,8.36-3.97.7-.8,1.64-.37,2.47-.49,6.34-.98,12.67-1.98,19.02-2.95,6.18-.94,12.37-1.84,18.56-2.75.56-.08,1.13-.23,1.69-.2,6.13.37,9.98-2.79,12.53-8,.47-.96.95-1.9,1.43-2.85,1.78-4.58,4.26-8.82,6.39-13.23,3.6-7.43,7.25-14.83,10.88-22.25,1.4-3.31,3.74-5.73,6.9-7.38-.16-.52-.33-1.03-.51-1.54.18.51.35,1.02.51,1.54,1.94-.54,3.94-.54,5.93-.57-.32-2.29-.78-4.52-1.65-6.61.86,2.09,1.33,4.32,1.65,6.61,2.64-.09,4.9,1.09,7.21,2.11,1.02,1.28,2.04,2.55,3.06,3.83,2.73,7.12,6.9,13.52,10.16,20.38,3.24,6.8,6.82,13.46,9.82,20.36,2.09,4.8,5.55,6.96,10.49,7.65,11.38,1.59,22.75,3.32,34.12,5,.67-1.23,1.8-1.95,2.89-2.72-1.09.77-2.22,1.49-2.89,2.72.55.7,1.33.23,1.98.38,4.34.69,8.77.99,12.85,2.9,3.46,2.12,5.24,5.21,5.41,9.25.03.73.1,1.45.16,2.18-.3,1.69-1.11,4.84-3.54,7.91Z"/>
</svg>